<?xml version="1.0" standalone="no"?>
<!DOCTYPE svg PUBLIC "-//W3C//DTD SVG 20010904//EN"
 "http://www.w3.org/TR/2001/REC-SVG-20010904/DTD/svg10.dtd">
<svg version="1.0" xmlns="http://www.w3.org/2000/svg"
 width="350.000000pt" height="350.000000pt" viewBox="0 0 350.000000 350.000000"
 preserveAspectRatio="xMidYMid meet">
<metadata>
Created by potrace 1.11, written by Peter Selinger 2001-2013
</metadata>
<g transform="translate(0.000000,350.000000) scale(0.100000,-0.100000)"
fill="#000000" stroke="none">
<path d="M1625 3359 c-151 -11 -256 -33 -405 -84 -83 -29 -232 -102 -298 -146
-24 -16 -45 -29 -48 -29 -3 0 -40 -26 -82 -57 -100 -75 -253 -228 -325 -325
-67 -89 -147 -222 -147 -242 0 -8 -4 -16 -8 -18 -11 -4 -73 -152 -101 -238
-61 -191 -88 -484 -62 -683 93 -707 600 -1250 1305 -1398 129 -27 372 -36 500
-19 263 36 477 113 685 247 147 95 205 146 378 328 33 34 128 176 168 250 140
256 199 485 199 775 0 231 -32 414 -104 596 -160 403 -445 708 -840 902 -229
111 -525 163 -815 141z m386 -95 c179 -30 421 -123 568 -218 378 -244 628
-620 702 -1057 18 -107 21 -149 16 -309 -6 -190 -15 -251 -63 -410 -28 -94
-138 -330 -154 -330 -6 0 -10 53 -10 138 0 437 -99 951 -236 1225 -118 235
-240 342 -464 406 -41 12 -81 24 -89 27 -11 3 -9 10 8 27 11 13 21 31 21 41 0
14 -6 16 -30 11 -33 -7 -37 0 -15 29 16 21 21 106 7 106 -5 0 -17 -10 -28 -21
-19 -21 -19 -21 -25 42 -4 45 -13 77 -32 107 -38 59 -53 55 -60 -17 -9 -101
-63 -195 -144 -250 -29 -20 -43 -21 -218 -21 -174 0 -190 2 -222 21 -78 48
-143 167 -143 260 0 21 -5 41 -10 44 -30 19 -83 -78 -84 -152 l-1 -52 -23 21
c-43 41 -54 -19 -18 -103 6 -13 2 -16 -17 -12 -36 7 -41 -11 -12 -45 l25 -30
-72 -21 c-209 -62 -296 -117 -397 -251 -193 -257 -312 -737 -339 -1370 l-7
-165 -38 67 c-85 150 -145 339 -172 545 -30 229 -9 441 66 673 178 544 648
947 1219 1045 109 19 377 18 491 -1z m-487 -694 c85 -21 182 -69 216 -105 l22
-24 32 29 c75 71 233 120 384 120 116 0 186 -16 291 -66 217 -105 351 -315
351 -554 0 -200 -96 -385 -242 -466 -49 -27 -61 -29 -148 -28 -79 1 -107 5
-165 28 -138 55 -274 44 -370 -30 -43 -32 -46 -33 -40 -12 10 31 59 125 84
163 47 69 12 167 -96 264 -37 33 -73 61 -80 61 -25 0 -140 -111 -168 -162 -38
-70 -38 -121 2 -185 71 -110 93 -184 40 -136 -12 12 -42 32 -67 45 -39 20 -59
23 -145 22 -86 0 -110 -5 -170 -29 -57 -23 -86 -29 -155 -29 -74 -1 -92 3
-143 27 -154 76 -249 256 -248 474 0 107 17 175 68 277 46 94 80 134 166 199
129 100 234 135 398 136 74 1 129 -5 183 -19z m229 -915 c-2 -66 -4 -174 -4
-240 -1 -95 -3 -110 -9 -73 -16 93 -65 213 -119 293 -12 17 -21 43 -21 59 0
45 40 114 95 164 l50 45 5 -64 c3 -35 5 -118 3 -184z m94 182 c82 -88 99 -161
49 -216 -29 -32 -87 -173 -106 -254 l-18 -82 -1 308 c-1 172 3 307 8 307 5 0
35 -28 68 -63z m-126 -599 c10 -24 22 -34 42 -36 23 -3 30 2 43 34 l15 37 142
-7 c344 -17 581 -75 749 -186 120 -79 187 -169 219 -293 11 -46 11 -47 -24
-86 -62 -69 -189 -182 -241 -216 -177 -113 -196 -123 -196 -103 0 7 -12 25
-27 40 l-27 28 27 28 c49 51 22 92 -32 47 -36 -31 -36 -31 -72 0 -54 45 -81 4
-32 -47 l27 -28 -28 -29 c-50 -52 -10 -86 41 -35 l25 25 29 -27 c16 -15 29
-31 29 -35 0 -10 -118 -59 -144 -59 -12 0 -31 -7 -42 -15 -25 -19 -63 -19 -85
1 -24 21 -49 11 -49 -20 0 -26 -10 -30 -96 -42 -61 -7 -73 4 -39 36 14 13 25
32 25 42 0 31 -29 33 -60 3 l-28 -27 -35 26 c-18 14 -39 26 -46 26 -24 0 -22
-30 3 -60 42 -50 20 -70 -80 -70 -35 0 -59 6 -74 18 l-21 17 25 24 c14 14 26
33 26 43 0 32 -29 33 -61 2 l-29 -28 -28 27 c-52 50 -98 20 -48 -32 14 -15 26
-32 26 -39 0 -15 -50 -14 -110 1 -38 10 -45 15 -42 35 5 32 -24 39 -58 14 -28
-21 -28 -21 -66 -1 -21 10 -47 19 -59 19 -11 0 -49 14 -84 30 l-65 31 32 32
32 31 28 -27 c32 -30 44 -33 61 -13 9 11 6 20 -14 44 -31 37 -31 40 2 74 22
23 24 30 13 43 -17 20 -20 19 -54 -10 -16 -14 -31 -25 -34 -25 -2 0 -18 11
-34 25 -17 14 -36 24 -42 22 -20 -6 -18 -42 4 -62 26 -23 25 -37 -1 -61 -12
-10 -24 -27 -28 -37 -6 -16 -18 -11 -96 38 -128 81 -189 128 -284 223 l-83 84
6 46 c22 160 174 312 392 391 158 58 395 95 630 99 l90 2 15 -32z"/>
<path d="M1303 2503 c-53 -10 -17 -23 65 -23 148 0 268 -40 352 -117 l40 -35
36 28 c111 89 215 124 366 124 98 0 111 14 24 25 -128 16 -288 -34 -411 -129
-7 -5 -29 4 -61 27 -28 20 -71 45 -97 56 -90 39 -236 59 -314 44z"/>
<path d="M1303 2423 c-13 -2 -23 -8 -23 -12 0 -5 53 -8 118 -7 145 1 224 -22
309 -91 l54 -44 44 36 c95 77 223 112 370 99 65 -5 78 -4 68 7 -18 18 -170 24
-246 9 -75 -14 -174 -59 -206 -94 l-24 -25 -30 25 c-40 34 -121 74 -182 90
-46 13 -201 17 -252 7z"/>
<path d="M1217 2339 c-56 -13 -89 -33 -129 -77 -112 -124 -66 -322 89 -387
118 -50 270 13 320 132 16 40 17 122 1 174 -32 109 -168 186 -281 158z m40
-115 c-36 -36 -37 -95 -2 -129 39 -40 115 -28 137 20 17 37 28 31 28 -15 0
-89 -64 -154 -151 -154 -148 0 -210 190 -91 278 23 18 91 37 101 29 2 -1 -8
-15 -22 -29z"/>
<path d="M2225 2343 c-85 -18 -151 -66 -185 -134 -83 -162 33 -353 215 -353
211 0 319 229 189 400 -44 57 -154 101 -219 87z m116 -116 c93 -62 91 -191 -4
-261 -41 -30 -121 -29 -166 3 -44 32 -75 101 -66 148 l6 36 19 -31 c37 -60 94
-69 141 -23 20 20 29 39 29 61 0 22 -9 41 -29 61 l-29 29 32 0 c18 0 48 -10
67 -23z"/>
<path d="M1635 1995 c-27 -14 -66 -25 -86 -25 -51 0 -73 -20 -73 -65 0 -70 71
-99 121 -49 19 19 24 31 19 52 -12 51 -11 55 24 76 50 30 188 30 245 0 25 -12
38 -26 36 -35 -15 -51 -12 -77 10 -98 30 -28 70 -27 97 2 45 48 14 117 -52
117 -19 0 -58 11 -88 25 -74 35 -182 35 -253 0z m-57 -57 c30 -30 3 -83 -39
-76 -32 5 -45 31 -31 62 13 28 49 35 70 14z m416 -13 c9 -14 21 -23 26 -20 6
4 6 -3 1 -17 -15 -41 -91 -33 -91 10 0 16 28 52 40 52 4 0 15 -11 24 -25z"/>
<path d="M1366 1125 c-15 -16 -14 -19 15 -52 l30 -35 -25 -27 c-48 -51 -21
-84 34 -41 32 25 43 25 65 0 20 -22 50 -26 61 -9 3 6 -6 23 -20 38 -32 33 -32
38 -2 75 44 53 8 76 -46 30 l-31 -25 -32 31 c-30 29 -33 30 -49 15z"/>
<path d="M1992 1128 c-18 -18 -15 -29 15 -60 l27 -28 -27 -28 c-15 -15 -27
-36 -27 -45 0 -24 42 -22 65 3 23 26 31 25 67 -5 24 -20 33 -23 44 -14 19 16
18 23 -12 59 l-27 31 28 29 c30 31 28 60 -3 60 -10 0 -29 -11 -42 -25 l-23
-24 -34 29 c-39 35 -36 33 -51 18z"/>
<path d="M1670 1113 c0 -9 12 -30 27 -45 l27 -28 -27 -28 c-49 -51 -22 -92 32
-47 35 30 43 31 66 5 19 -21 56 -24 62 -4 2 6 -8 23 -23 39 -17 19 -23 33 -18
40 5 7 17 24 27 38 34 48 -8 65 -53 22 l-26 -25 -24 25 c-27 29 -70 34 -70 8z"/>
<path d="M1061 1076 c-10 -11 -6 -21 18 -49 l30 -34 -24 -23 c-14 -13 -25 -32
-25 -42 0 -32 29 -33 61 -2 l29 28 28 -27 c32 -31 44 -33 62 -12 11 13 9 20
-13 43 -33 35 -33 39 0 74 22 23 24 30 13 43 -18 21 -30 19 -62 -12 l-28 -27
-28 27 c-32 31 -44 33 -61 13z"/>
<path d="M2293 1083 c-21 -8 -15 -35 14 -65 l27 -28 -28 -29 c-17 -18 -26 -36
-23 -45 9 -22 27 -19 61 9 l29 23 34 -25 c56 -43 85 -12 37 38 l-27 28 27 31
c30 37 31 43 11 60 -13 11 -20 9 -43 -13 -35 -33 -42 -33 -72 -2 -24 26 -27
27 -47 18z"/>
<path d="M765 970 c-3 -5 6 -26 20 -45 l27 -35 -26 -31 c-15 -17 -25 -37 -23
-43 7 -21 43 -17 66 8 l24 25 29 -24 c59 -50 94 -18 41 37 l-27 28 27 28 c49
51 22 85 -33 42 -32 -25 -43 -25 -65 0 -19 21 -50 26 -60 10z"/>
<path d="M2573 964 c-3 -9 5 -27 22 -44 l28 -29 -27 -31 c-30 -36 -31 -43 -12
-59 11 -9 20 -6 44 14 37 31 37 31 73 0 54 -45 81 -4 32 47 l-27 28 28 29 c17
18 26 36 23 45 -9 22 -25 20 -62 -9 l-32 -24 -23 24 c-27 28 -58 33 -67 9z"/>
<path d="M1525 850 c-6 -10 3 -26 39 -75 6 -9 1 -21 -18 -40 -15 -15 -25 -32
-23 -38 7 -21 38 -19 62 3 25 23 53 21 75 -5 7 -8 21 -15 31 -15 25 0 25 32
-1 55 -11 10 -20 23 -20 30 0 7 9 20 20 30 25 23 27 65 3 65 -9 0 -30 -12 -45
-27 l-28 -27 -28 27 c-29 28 -56 35 -67 17z"/>
<path d="M1813 844 c-3 -9 6 -27 23 -45 l28 -29 -28 -29 c-50 -52 -8 -86 44
-36 l26 25 24 -25 c13 -14 32 -25 42 -25 32 0 33 29 2 61 l-28 29 28 29 c50
52 14 83 -42 36 l-29 -24 -23 24 c-27 28 -58 33 -67 9z"/>
<path d="M1233 814 c-3 -9 6 -27 23 -45 l28 -29 -28 -29 c-50 -52 -15 -83 40
-36 l28 24 27 -25 c27 -26 59 -29 66 -8 2 6 -8 26 -23 43 l-27 32 28 29 c30
31 28 60 -3 60 -10 0 -27 -9 -37 -20 -10 -11 -23 -20 -30 -20 -7 0 -22 9 -35
20 -28 24 -48 26 -57 4z"/>
<path d="M2113 814 c-3 -9 6 -27 23 -45 l28 -29 -28 -29 c-50 -52 -15 -83 40
-36 l28 24 27 -25 c27 -26 59 -29 66 -8 2 6 -8 26 -22 43 l-27 31 27 31 c45
54 5 82 -46 33 l-29 -28 -28 27 c-32 31 -50 34 -59 11z"/>
<path d="M940 732 c0 -11 9 -27 20 -37 27 -24 25 -47 -4 -74 -26 -24 -25 -51
1 -51 8 0 29 11 45 26 l31 25 26 -25 c50 -48 92 -19 46 30 -31 33 -31 37 0 70
45 49 4 76 -45 29 l-27 -26 -31 25 c-35 31 -62 34 -62 8z"/>
<path d="M2403 734 c-3 -9 6 -27 23 -45 l28 -29 -27 -28 c-31 -32 -35 -57 -10
-66 10 -4 26 3 43 19 32 31 35 31 72 0 24 -20 33 -23 44 -14 19 16 18 23 -12
59 l-27 31 28 29 c49 51 13 82 -42 36 l-28 -24 -30 24 c-35 28 -53 30 -62 8z"/>
<path d="M1360 567 c0 -12 9 -30 20 -40 26 -22 25 -39 -4 -66 -14 -13 -22 -29
-19 -37 7 -18 37 -18 53 1 22 26 50 28 75 5 24 -23 55 -24 62 -3 3 7 -7 22
-21 34 -32 28 -32 34 -1 70 44 53 5 81 -46 33 l-27 -26 -29 26 c-35 33 -63 34
-63 3z"/>
<path d="M1673 574 c-3 -9 6 -27 23 -45 l28 -29 -27 -28 c-50 -52 -21 -86 36
-42 32 25 39 25 62 0 20 -22 56 -23 62 -3 3 7 -7 23 -21 36 -32 30 -32 34 0
68 49 51 5 82 -47 33 l-26 -25 -31 25 c-34 30 -50 32 -59 10z"/>
<path d="M1983 574 c-3 -9 6 -27 23 -45 l28 -29 -27 -28 c-15 -15 -27 -36 -27
-45 0 -26 43 -21 70 8 l24 25 27 -26 c48 -46 90 -17 44 31 -14 16 -25 30 -25
33 0 3 12 18 26 33 49 51 5 82 -47 33 l-26 -25 -31 25 c-34 30 -50 32 -59 10z"/>
</g>
</svg>
